HIERARCHY
ROOT joint_Root
{
	OFFSET 0.0 0.0 0.0
	CHANNELS 6 Xposition Yposition Zposition Zrotation Xrotation Yrotation 
	JOINT Hips
	{
		OFFSET 4.5925 91.4895 -427.239
		CHANNELS 6 Xposition Yposition Zposition Zrotation Xrotation Yrotation 
		JOINT Spine
		{
			OFFSET 15.7357 0.0 0.0
			CHANNELS 6 Xposition Yposition Zposition Zrotation Xrotation Yrotation 
			JOINT Chest
			{
				OFFSET 8.98455 -0.406207 0.0
				CHANNELS 6 Xposition Yposition Zposition Zrotation Xrotation Yrotation 
				JOINT Neck
				{
					OFFSET 16.3773 0.0 0.0
					CHANNELS 6 Xposition Yposition Zposition Zrotation Xrotation Yrotation 
					JOINT Head
					{
						OFFSET 6.45672 0.0 0.0
						CHANNELS 6 Xposition Yposition Zposition Zrotation Xrotation Yrotation 
						End Site
						{
							OFFSET 0.0 0.0 0.0
						}
					}
				}
				JOINT Shoulder_L
				{
					OFFSET 12.9942 -0.242716 4.98039
					CHANNELS 6 Xposition Yposition Zposition Zrotation Xrotation Yrotation 
					JOINT UpperArm_L
					{
						OFFSET 5.34809 0.0 0.0
						CHANNELS 6 Xposition Yposition Zposition Zrotation Xrotation Yrotation 
						JOINT LowerArm_L
						{
							OFFSET 24.3286 1.87007e-05 0.0
							CHANNELS 6 Xposition Yposition Zposition Zrotation Xrotation Yrotation 
							JOINT Hand_L
							{
								OFFSET 22.2916 0.0 0.0
								CHANNELS 6 Xposition Yposition Zposition Zrotation Xrotation Yrotation 
								End Site
								{
									OFFSET 0.0 0.0 0.0
								}
							}
						}
					}
				}
				JOINT Shoulder_R
				{
					OFFSET 12.9945 -0.242716 -4.98039
					CHANNELS 6 Xposition Yposition Zposition Zrotation Xrotation Yrotation 
					JOINT UpperArm_R
					{
						OFFSET -5.34813 0.0 0.0
						CHANNELS 6 Xposition Yposition Zposition Zrotation Xrotation Yrotation 
						JOINT LowerArm_R
						{
							OFFSET -24.3289 0.000322201 0.0
							CHANNELS 6 Xposition Yposition Zposition Zrotation Xrotation Yrotation 
							JOINT Hand_R
							{
								OFFSET -22.2915 -0.000108084 0.0
								CHANNELS 6 Xposition Yposition Zposition Zrotation Xrotation Yrotation 
								End Site
								{
									OFFSET 0.0 0.0 0.0
								}
							}
						}
					}
				}
			}
		}
		JOINT UpperLeg_L
		{
			OFFSET -2.19248 -6.46944 0.0
			CHANNELS 6 Xposition Yposition Zposition Zrotation Xrotation Yrotation 
			JOINT LowerLeg_L
			{
				OFFSET 39.0811 0.0 -1.23785e-05
				CHANNELS 6 Xposition Yposition Zposition Zrotation Xrotation Yrotation 
				JOINT Foot_L
				{
					OFFSET 40.9854 0.0 -1.26872e-05
					CHANNELS 6 Xposition Yposition Zposition Zrotation Xrotation Yrotation 
					JOINT Toes_L
					{
						OFFSET 11.7543 0.0 0.0
						CHANNELS 6 Xposition Yposition Zposition Zrotation Xrotation Yrotation 
						End Site
						{
							OFFSET 0.0 0.0 0.0
						}
					}
				}
			}
		}
		JOINT UpperLeg_R
		{
			OFFSET -2.19251 6.46944 0.0
			CHANNELS 6 Xposition Yposition Zposition Zrotation Xrotation Yrotation 
			JOINT LowerLeg_R
			{
				OFFSET -39.0811 -0.00228153 -0.0401928
				CHANNELS 6 Xposition Yposition Zposition Zrotation Xrotation Yrotation 
				JOINT Foot_R
				{
					OFFSET -40.9854 0.0 0.0
					CHANNELS 6 Xposition Yposition Zposition Zrotation Xrotation Yrotation 
					JOINT Toes_R
					{
						OFFSET -11.7543 0.0 0.0
						CHANNELS 6 Xposition Yposition Zposition Zrotation Xrotation Yrotation 
						End Site
						{
							OFFSET 0.0 0.0 0.0
						}
					}
				}
			}
		}
	}
}
MOTION
Frames:	7
Frame Time:	0.0333333
0.000000 0.000000 0.000000 0.000000 0.000000 -0.000000 1.352660 95.837700 -41.263100 88.091000 -14.626700 -9.420920 15.735700 0.000005 -0.000001 144.517000 81.440100 -145.863000 8.984550 -0.406207 -0.000000 2.405510 13.993200 -2.994950 16.377300 -0.000001 -0.000001 0.772546 -1.990680 -0.798193 6.456720 -0.000001 -0.000000 -1.134170 -9.832230 5.287950 12.994200 -0.242716 4.980390 -83.718800 -13.973600 -65.495400 5.348090 -0.000007 -0.000001 -71.796700 23.637300 40.366200 24.328600 0.000019 0.000005 14.213700 2.255740 -81.168000 22.291600 -0.000001 0.000005 -10.072800 5.544740 -8.457980 12.994500 -0.242716 -4.980390 90.197200 -1.586960 -82.911100 -5.348130 -0.000001 -0.000004 -47.465100 27.627200 -47.729000 -24.328900 0.000322 -0.000009 -6.809620 4.081670 -120.803000 -22.291500 -0.000108 -0.000004 14.437600 5.520420 -7.379470 -2.192480 -6.469440 -0.000000 -179.395000 -5.363210 -32.487300 39.081100 -0.000007 -0.000012 0.005921 -0.015997 20.311500 40.985400 -0.000006 -0.000013 2.965250 3.199740 -66.101600 11.754300 -0.000000 0.000003 -0.003168 -0.042493 -18.305000 -2.192510 6.469440 -0.000001 162.981000 17.575500 -163.956000 -39.081100 -0.002282 -0.040193 0.350136 -0.487682 35.421600 -40.985400 0.000008 0.000006 -0.893344 8.001680 -24.818400 -11.754300 -0.000006 -0.000006 -0.013580 -0.128681 -21.821200
0.000000 0.000000 0.000000 0.000000 0.000000 -0.000000 0.717508 94.916400 -29.014000 85.035800 -15.618000 -7.638100 15.735700 0.000005 -0.000001 142.773000 81.032400 -143.323000 8.984550 -0.406207 -0.000000 3.241070 14.287300 -1.508750 16.377300 -0.000001 -0.000001 0.533458 -1.039080 -0.697616 6.456720 -0.000001 -0.000000 -0.810836 -9.689690 5.846970 12.994200 -0.242716 4.980390 -84.029400 -12.726500 -64.604000 5.348090 -0.000007 -0.000001 -70.993000 16.718400 36.778200 24.328600 0.000019 0.000005 14.491500 1.864340 -82.825200 22.291600 -0.000001 0.000005 -9.584580 5.536000 -8.060310 12.994500 -0.242716 -4.980390 90.121100 -1.118730 -83.829200 -5.348130 -0.000001 -0.000004 -48.694800 33.228800 -42.192400 -24.328900 0.000322 -0.000009 -8.326690 3.590030 -113.176000 -22.291500 -0.000108 -0.000004 15.205700 5.548440 -8.611280 -2.192480 -6.469440 -0.000000 -175.767000 -7.875140 -25.093600 39.081100 -0.000007 -0.000012 -0.004188 0.056134 4.265570 40.985400 -0.000006 -0.000013 -0.553791 4.575170 -71.328800 11.754300 -0.000000 0.000003 -0.005348 -0.064806 -19.213800 -2.192510 6.469440 -0.000001 168.921000 7.833380 -163.734000 -39.081100 -0.002282 -0.040193 0.461598 -0.402570 48.707700 -40.985400 0.000008 0.000006 0.268618 6.948350 -22.438300 -11.754300 -0.000006 -0.000006 -0.014032 -0.131636 -21.942400
0.000000 0.000000 0.000000 0.000000 0.000000 -0.000000 0.391241 92.964000 -17.388200 85.067800 -14.169500 -6.362650 15.735700 0.000005 -0.000001 135.989000 81.567900 -136.752000 8.984550 -0.406207 -0.000000 4.108890 12.135400 -1.964020 16.377300 -0.000001 -0.000001 0.155294 -0.679119 -0.130961 6.456720 -0.000001 -0.000000 -1.301450 -8.230950 6.739520 12.994200 -0.242716 4.980390 -85.561400 -9.895760 -65.698000 5.348090 -0.000007 -0.000001 -70.144600 8.782870 31.089900 24.328600 0.000019 0.000005 15.471400 2.054120 -82.621800 22.291600 -0.000001 0.000005 -5.823930 5.549380 -8.639560 12.994500 -0.242716 -4.980390 89.946700 0.517815 -84.120600 -5.348130 -0.000001 -0.000004 -52.326800 37.495100 -34.754800 -24.328900 0.000322 -0.000009 -9.818990 2.125540 -102.102000 -22.291500 -0.000108 -0.000004 16.233300 5.574470 -9.917360 -2.192480 -6.469440 -0.000000 -179.753000 -16.187000 -26.199100 39.081100 -0.000007 -0.000012 -0.008673 0.075411 6.559860 40.985400 -0.000006 -0.000013 -7.756430 2.675760 -73.326600 11.754300 -0.000000 0.000003 -0.004998 -0.061453 -19.077200 -2.192510 6.469440 -0.000001 171.700000 4.383290 -167.429000 -39.081100 -0.002282 -0.040193 0.652004 -0.271265 67.312900 -40.985400 0.000008 0.000006 -3.091660 7.775720 -17.340900 -11.754300 -0.000006 -0.000006 -0.014414 -0.134095 -22.043300
0.000000 0.000000 0.000000 0.000000 0.000000 -0.000000 0.221875 89.938000 -6.761820 86.681200 -10.229300 -5.869700 15.735700 0.000005 -0.000001 125.165000 82.608600 -126.466000 8.984550 -0.406207 -0.000000 4.457600 8.537330 -2.934760 16.377300 -0.000001 -0.000001 -0.401273 -1.345330 0.704002 6.456720 -0.000001 -0.000000 -2.211000 -6.359920 6.921500 12.994200 -0.242716 4.980390 -87.941200 -5.494630 -69.461700 5.348090 -0.000007 -0.000001 -69.325700 2.160610 23.303400 24.328600 0.000019 0.000005 15.709800 2.749750 -80.321100 22.291600 -0.000001 0.000005 0.517859 5.574180 -9.864050 12.994500 -0.242716 -4.980390 89.687700 2.839350 -83.728100 -5.348130 -0.000001 -0.000004 -57.108900 38.841000 -25.359000 -24.328900 0.000322 -0.000009 -10.549000 -0.176301 -89.052800 -22.291500 -0.000108 -0.000004 16.467200 5.590120 -10.769100 -2.192480 -6.469440 -0.000000 176.010000 -15.581600 -34.646200 39.081100 -0.000007 -0.000012 0.344505 -0.737804 25.030300 40.985400 -0.000006 -0.000013 4.806970 -4.656920 -73.734300 11.754300 -0.000000 0.000003 -0.007729 -0.085817 -20.071100 -2.192510 6.469440 -0.000001 171.955000 6.607460 -174.707000 -39.081100 -0.002282 -0.040193 0.988970 -0.025619 88.516100 -40.985400 0.000008 0.000006 -3.556760 2.571090 -12.342600 -11.754300 -0.000006 -0.000006 -0.014810 -0.136615 -22.146700
0.000000 0.000000 0.000000 0.000000 0.000000 -0.000000 0.485884 86.689500 2.827700 90.751900 -5.489830 -8.696210 15.735700 0.000005 -0.000001 111.003000 84.526400 -113.643000 8.984550 -0.406207 -0.000000 2.558160 4.040340 -5.367130 16.377300 -0.000001 -0.000001 -1.447560 -2.294400 1.291040 6.456720 -0.000001 -0.000000 -2.968810 -4.899290 7.714190 12.994200 -0.242716 4.980390 -90.233000 0.805298 -73.703300 5.348090 -0.000007 -0.000001 -67.064600 -0.067711 11.945100 24.328600 0.000019 0.000005 15.070000 3.552820 -77.038600 22.291600 -0.000001 0.000005 3.242420 5.564480 -9.405160 12.994500 -0.242716 -4.980390 89.029000 7.791560 -82.878200 -5.348130 -0.000001 -0.000004 -58.726100 36.919700 -16.216200 -24.328900 0.000322 -0.000009 -10.766000 -3.176920 -73.774000 -22.291500 -0.000108 -0.000004 15.906000 5.614040 -12.241200 -2.192480 -6.469440 -0.000000 172.619000 -8.856550 -43.586000 39.081100 -0.000007 -0.000012 0.102377 -0.119754 40.526500 40.985400 -0.000006 -0.000013 5.504620 -4.026090 -57.010900 11.754300 -0.000000 0.000003 -0.003003 -0.040646 -18.229800 -2.192510 6.469440 -0.000001 170.791000 10.924500 170.806000 -39.081100 -0.002282 -0.040193 1.173520 0.425246 109.972000 -40.985400 0.000008 0.000006 -0.554825 -0.347362 -8.339480 -11.754300 -0.000006 -0.000006 -0.014642 -0.135548 -22.102900
0.000000 0.000000 0.000000 0.000000 0.000000 -0.000000 0.949250 83.417900 13.189400 93.502700 -1.252670 -7.742070 15.735700 0.000005 -0.000001 90.549900 84.361700 -93.990200 8.984550 -0.406207 -0.000000 3.526440 0.235083 -6.880450 16.377300 -0.000001 -0.000001 -3.194420 -3.148740 1.298160 6.456720 -0.000001 -0.000000 -3.369720 -4.358180 8.502380 12.994200 -0.242716 4.980390 -91.184500 4.669340 -75.743800 5.348090 -0.000007 -0.000001 -64.975800 6.034360 -4.849300 24.328600 0.000019 0.000005 15.982400 3.610020 -77.596800 22.291600 -0.000001 0.000005 1.446380 5.575200 -9.966800 12.994500 -0.242716 -4.980390 88.726400 9.299940 -82.167100 -5.348130 -0.000001 -0.000004 -63.416900 31.421700 -7.306270 -24.328900 0.000322 -0.000009 -10.980700 -8.157550 -53.847600 -22.291500 -0.000108 -0.000004 17.324500 5.648140 -14.846500 -2.192480 -6.469440 -0.000000 171.217000 -2.662090 -43.021200 39.081100 -0.000007 -0.000012 -0.628782 0.416291 56.494600 40.985400 -0.000006 -0.000013 3.624420 -7.024010 -71.855400 11.754300 -0.000000 0.000003 -0.000038 -0.000444 -16.594900 -2.192510 6.469440 -0.000001 170.248000 12.791800 157.482000 -39.081100 -0.002282 -0.040193 0.993736 0.730856 126.425000 -40.985400 0.000008 0.000006 -0.862462 -0.205563 -0.315949 -11.754300 -0.000006 -0.000006 -0.015035 -0.138035 -22.205000
0.000000 0.000000 0.000000 0.000000 0.000000 -0.000000 1.389480 81.643200 23.957100 95.567100 2.531270 -5.155430 15.735700 0.000005 -0.000001 79.939100 82.948900 -83.868500 8.984550 -0.406207 -0.000000 6.053260 -2.398530 -7.723800 16.377300 -0.000001 -0.000001 -4.378370 -3.700240 0.845872 6.456720 -0.000001 -0.000000 -3.991350 -4.752000 8.693730 12.994200 -0.242716 4.980390 -90.601700 2.813670 -77.942600 5.348090 -0.000007 -0.000001 -64.904200 14.355500 -21.623100 24.328600 0.000019 0.000005 16.097200 1.508590 -84.798700 22.291600 -0.000001 0.000005 -0.995525 5.591860 -10.861200 12.994500 -0.242716 -4.980390 88.863400 7.907710 -81.793100 -5.348130 -0.000001 -0.000004 -66.564900 26.829600 4.167420 -24.328900 0.000322 -0.000009 -11.712400 -12.343400 -44.118300 -22.291500 -0.000108 -0.000004 17.481200 5.659710 -16.016000 -2.192480 -6.469440 -0.000000 169.362000 -3.449240 -33.949200 39.081100 -0.000007 -0.000012 -0.904820 0.483751 61.871800 40.985400 -0.000006 -0.000013 4.560760 -4.235290 -83.319900 11.754300 -0.000000 0.000003 -0.000083 -0.000882 -16.611500 -2.192510 6.469440 -0.000001 169.969000 11.417300 144.384000 -39.081100 -0.002282 -0.040193 0.452589 0.451395 135.141000 -40.985400 0.000008 0.000006 -4.530290 3.134050 5.485000 -11.754300 -0.000006 -0.000006 -0.015825 -0.142955 -22.407000
